#!OML:ASF H:\Punching\Project 1\Capture day 1\Session 1\female.ASF
:FULLY-SPECIFIED
:DEGREES
1267
root -0.148412 11.2293 -0.239663 18.6013 5.85588 5.96281
lowerback 28.5529 3.24043 0.989573
upperback 4.40929 4.45412 -0.0572993
thorax -10.7305 2.02042 -2.26767
lowerneck -10.2178 -0.0199133 10.2466
upperneck 14.5439 -2.01244 1.99838
head 6.06574 -0.246222 -1.19169
rclavicle -5.56597e-014 2.70347e-014
rhumerus 47.2247 9.84518 -76.0436
rradius 73.2278
rwrist -29.7043
rhand -23.0119 -23.4645
rfingers 7.12502
rthumb 3.43163 -53.4166
lclavicle -5.56597e-014 2.70347e-014
lhumerus 41.3475 -34.1708 72.0203
lradius 132.556
lwrist 16.9179
lhand -21.1257 8.54944
lfingers 7.12502
lthumb 5.25297 38.4643
rfemur -35.4374 -36.3945 -13.8512
rtibia 104.202
rfoot -35.2922 -0.656632
rtoes -37.8924
lfemur -90.2638 2.89269 -20.8039
ltibia 82.3995
lfoot -8.51897 -3.92225
ltoes -2.28966
1268
root -0.11553 11.2644 -0.237587 18.5627 4.71131 5.31148
lowerback 28.5691 2.99283 0.71794
upperback 4.49945 4.04684 -0.0849768
thorax -10.6664 1.84229 -1.9925
lowerneck -10.0084 0.680052 10.3666
upperneck 14.5691 -0.99814 1.53
head 6.0744 0.208918 -1.27907
rclavicle 2.46493e-014 6.36111e-015
rhumerus 45.3176 11.6137 -76.4337
rradius 78.7693
rwrist -31.8749
rhand -22.8681 -23.5635
rfingers 7.12502
rthumb 3.57052 -53.5133
lclavicle 2.46493e-014 6.36111e-015
lhumerus 41.3679 -33.2672 71.8128
lradius 132.742
lwrist 17.0435
lhand -21.3416 8.94996
lfingers 7.12502
lthumb 5.0445 38.8699
rfemur -36.2589 -35.6973 -12.8247
rtibia 103.557
rfoot -35.339 -0.599771
rtoes -37.9311
lfemur -90.0351 3.37582 -19.6923
ltibia 82.6144
lfoot -8.94503 -3.04077
ltoes -2.86949
1269
root -0.0809345 11.2973 -0.235453 18.5656 3.51112 4.69507
lowerback 28.5612 2.7533 0.378996
upperback 4.56181 3.62835 -0.130023
thorax -10.6214 1.66012 -1.69375
lowerneck -9.69152 1.38004 10.5341
upperneck 14.5415 0.033634 1.009
head 6.05498 0.669096 -1.38949
rclavicle -3.97569e-014 1.03368e-014
rhumerus 43.2641 13.3109 -76.925
rradius 84.0745
rwrist -33.7374
rhand -22.5794 -23.4945
rfingers 7.12502
rthumb 3.84924 -53.4395
lclavicle -3.97569e-014 1.03368e-014
lhumerus 41.3171 -32.3789 71.634
lradius 132.928
lwrist 17.1464
lhand -21.5415 9.26807
lfingers 7.12502
lthumb 4.85149 39.1925
rfemur -37.1015 -35.0481 -11.8706
rtibia 102.928
rfoot -35.4297 -0.529364
rtoes -38.0285
lfemur -89.8034 3.90944 -18.6504
ltibia 82.8409
lfoot -9.37712 -2.19702
ltoes -3.43461
1270
root -0.0443664 11.3267 -0.232779 18.6172 2.25427 4.1156
lowerback 28.5178 2.52832 -0.0247033
upperback 4.59498 3.20802 -0.191311
thorax -10.5895 1.47846 -1.37454
lowerneck -9.27581 2.07322 10.7354
upperneck 14.4596 1.07134 0.453508
head 6.00956 1.13052 -1.51704
rclavicle -3.49861e-014 -3.97569e-015
rhumerus 41.0769 14.9336 -77.4757
rradius 89.1209
rwrist -35.292
rhand -22.2207 -23.2318
rfingers 7.12502
rthumb 4.19563 -53.1703
lclavicle -3.49861e-014 -3.97569e-015
lhumerus 41.2084 -31.4916 71.4921
lradius 133.105
lwrist 17.2449
lhand -21.6966 9.46453
lfingers 7.12502
lthumb 4.70173 39.3924
rfemur -37.9823 -34.4401 -10.9937
rtibia 102.324
rfoot -35.5475 -0.407676
rtoes -38.1889
lfemur -89.591 4.50082 -17.6937
ltibia 83.0902
lfoot -9.81361 -1.39584
ltoes -4.01252
1271
root -0.00665849 11.3527 -0.229411 18.7044 0.961299 3.57333
lowerback 28.4698 2.31915 -0.489612
upperback 4.60717 2.78948 -0.260481
thorax -10.5762 1.29911 -1.03002
lowerneck -8.84408 2.75983 10.9616
upperneck 14.3541 2.10386 -0.132676
head 5.96262 1.58994 -1.66011
rclavicle 3.73715e-014 -3.26007e-014
rhumerus 38.7971 16.473 -78.0459
rradius 93.8995
rwrist -36.5942
rhand -21.8395 -22.7424
rfingers 7.12502
rthumb 4.56378 -52.6732
lclavicle 3.73715e-014 -3.26007e-014
lhumerus 41.0867 -30.5986 71.3768
lradius 133.269
lwrist 17.3183
lhand -21.788 9.55243
lfingers 7.12502
lthumb 4.61347 39.4822
rfemur -38.873 -33.8605 -10.1926
rtibia 101.735
rfoot -35.6932 -0.252491
rtoes -38.4378
lfemur -89.3866 5.1313 -16.8137
ltibia 83.3629
lfoot -10.2567 -0.632096
ltoes -4.60846
1272
root 0.0326932 11.3762 -0.223048 18.7841 -0.366593 3.05987
lowerback 28.4277 2.12795 -0.988369
upperback 4.6247 2.38293 -0.340885
thorax -10.5543 1.12614 -0.683015
lowerneck -8.41365 3.43637 11.2112
upperneck 14.2115 3.12346 -0.740694
head 5.91307 2.04406 -1.8159
rclavicle -1.82882e-014 1.51076e-014
rhumerus 36.4759 17.9013 -78.6142
rradius 98.3995
rwrist -37.7013
rhand -21.4305 -22.0983
rfingers 7.12502
rthumb 4.95864 -52.0203
lclavicle -1.82882e-014 1.51076e-014
lhumerus 40.9623 -29.7193 71.2805
lradius 133.434
lwrist 17.3508
lhand -21.8123 9.52581
lfingers 7.12502
lthumb 4.58998 39.4561
rfemur -39.7054 -33.2693 -9.4875
rtibia 101.139
rfoot -35.8639 -0.0620157
rtoes -38.7668
lfemur -89.1385 5.79274 -16.0018
ltibia 83.6669
lfoot -10.7239 0.11172
ltoes -5.20974
1273
root 0.0732078 11.3977 -0.212818 18.8245 -1.69748 2.57124
lowerback 28.4285 1.9521 -1.50309
upperback 4.64404 1.99094 -0.42093
thorax -10.5461 0.960101 -0.332906
lowerneck -7.9588 4.09399 11.4715
upperneck 14.0223 4.12187 -1.36173
head 5.85307 2.48894 -1.98052
rclavicle -3.81667e-014 1.11319e-014
rhumerus 34.1275 19.213 -79.1537
rradius 102.613
rwrist -38.6757
rhand -20.9836 -21.2935
rfingers 7.12502
rthumb 5.39018 -51.2049
lclavicle -3.81667e-014 1.11319e-014
lhumerus 40.817 -28.8907 71.2086
lradius 133.615
lwrist 17.2643
lhand -21.8415 9.51307
lfingers 7.12502
lthumb 4.56177 39.444
rfemur -40.415 -32.665 -8.89281
rtibia 100.521
rfoot -36.0534 0.175859
rtoes -39.1255
lfemur -88.8144 6.45911 -15.2517
ltibia 83.9995
lfoot -11.2188 0.836689
ltoes -5.77298
1274
root 0.113178 11.4169 -0.201233 18.853 -2.96621 2.1056
lowerback 28.4524 1.76787 -2.01146
upperback 4.66786 1.59118 -0.49059
thorax -10.538 0.790409 0.0279188
lowerneck -7.51505 4.7396 11.7255
upperneck 13.797 5.10292 -1.97902
head 5.79149 2.92725 -2.14494
rclavicle -5.56597e-015 6.36111e-015
rhumerus 31.8074 20.4226 -79.6535
rradius 106.538
rwrist -39.5175
rhand -20.5069 -20.3714
rfingers 7.12502
rthumb 5.85046 -50.2706
lclavicle -5.56597e-015 6.36111e-015
lhumerus 40.6732 -28.0903 71.148
lradius 133.816
lwrist 17.0797
lhand -21.8814 9.51472
lfingers 7.12502
lthumb 4.52333 39.4464
rfemur -41.0212 -32.0985 -8.37409
rtibia 99.8908
rfoot -36.2357 0.44147
rtoes -39.4662
lfemur -88.4697 7.08693 -14.5528
ltibia 84.3459
lfoot -11.7094 1.53254
ltoes -6.27401
1275
root 0.152441 11.4348 -0.187061 18.8451 -4.15775 1.63988
lowerback 28.5145 1.56899 -2.49226
upperback 4.70784 1.18229 -0.541492
thorax -10.5236 0.615699 0.397265
lowerneck -7.09248 5.37829 11.9694
upperneck 13.5375 6.07099 -2.58529
head 5.73029 3.3615 -2.30534
rclavicle -1.08338e-014 6.65929e-015
rhumerus 29.5554 21.5462 -80.118
rradius 110.167
rwrist -40.2326
rhand -20.0042 -19.3882
rfingers 7.12502
rthumb 6.33577 -49.2734
lclavicle -1.08338e-014 6.65929e-015
lhumerus 40.5351 -27.2965 71.0831
lradius 134.048
lwrist 16.8532
lhand -21.9436 9.54076
lfingers 7.12502
lthumb 4.46323 39.4737
rfemur -41.477 -31.5433 -7.9127
rtibia 99.2326
rfoot -36.4136 0.726973
rtoes -39.81
lfemur -88.0766 7.6647 -13.8724
ltibia 84.6992
lfoot -12.1964 2.20395
ltoes -6.69416
